<svg xmlns="http://www.w3.org/2000/svg" viewBox="0 0 164.72 191"><defs><style>.cls-1{fill:#031927;}.cls-2{fill:#14a3ff;}</style></defs><title>logo</title><g id="Layer_2" data-name="Layer 2"><g id="All"><path class="cls-1" d="M101.64,2.8a5.2,5.2,0,0,0-1-1.29L84.47,32h0L133,124.28h30.41a1.31,1.31,0,0,0,1.16-1.92Z"/><path class="cls-2" d="M163.41,127.28H132.85L115,162a5.25,5.25,0,0,1-4.66,2.84H57a1.31,1.31,0,0,0-1.17,1.9L68.17,191H129.4a5.24,5.24,0,0,0,4.65-2.83l30.52-59A1.31,1.31,0,0,0,163.41,127.28Z"/><path class="cls-1" d="M.15,129.19l30.52,59A5.24,5.24,0,0,0,35.32,191H64.71L31.87,127.28H1.31A1.31,1.31,0,0,0,.15,129.19Z"/><path class="cls-2" d="M31.73,124.28,80.27,32,95.85,2.69A1.84,1.84,0,0,0,94.23,0H68.84a7.08,7.08,0,0,0-6.26,3.77L.17,122.36a1.31,1.31,0,0,0,1.16,1.92Z"/></g></g></svg>