<svg xmlns="http://www.w3.org/2000/svg" viewBox="0 0 375.18 82.02"><defs><style>.cls-1{fill:#14a3ff;}.cls-1,.cls-2{fill-rule:evenodd;}.cls-2{fill:#031927;}</style></defs><title>logo</title><g id="Layer_2" data-name="Layer 2"><g id="Layer_1-2" data-name="Layer 1"><path d="M77.42,53.54a12.82,12.82,0,0,0-.08,1.6,9.25,9.25,0,0,0,1.92,6.28,6.73,6.73,0,0,0,5.36,2.2,15.78,15.78,0,0,0,2-.12A11.92,11.92,0,0,1,88,63.38a1.46,1.46,0,0,1,1.16.52,2.2,2.2,0,0,1,.44,1.48,1.81,1.81,0,0,1-1.24,1.8,12.79,12.79,0,0,1-4.44.52,11.13,11.13,0,0,1-8.36-3.16q-3.08-3.15-3.08-8.84a15.9,15.9,0,0,1,.08-1.76l1.68-21.6H68.3a2,2,0,0,1-1.44-.52,1.92,1.92,0,0,1-.56-1.48,1.84,1.84,0,0,1,.56-1.4,2.09,2.09,0,0,1,1.44-.52h6.16l.8-10a2.8,2.8,0,0,1,.84-1.6,2.46,2.46,0,0,1,1.72-.64,2.3,2.3,0,0,1,1.76.68,2.13,2.13,0,0,1,.56,1.72l-.8,9.84H89.1a2.05,2.05,0,0,1,1.44.52,1.81,1.81,0,0,1,.56,1.4,1.89,1.89,0,0,1-.56,1.48,2.13,2.13,0,0,1-1.52.52H79.1Z"/><path d="M97.42,48.42v.8q0,6.72,3.36,10.48t9.68,3.76a20.34,20.34,0,0,0,6.36-1,17.64,17.64,0,0,0,5.4-2.76,2.72,2.72,0,0,1,1.52-.56,1.71,1.71,0,0,1,1.32.56,2,2,0,0,1,.52,1.44,2.64,2.64,0,0,1-1,2,16.52,16.52,0,0,1-6.2,3.32,26,26,0,0,1-8.12,1.32q-8.31,0-13.12-5.08t-4.8-13.64A26.13,26.13,0,0,1,94.7,37.78a17.84,17.84,0,0,1,6.64-7.6,18.55,18.55,0,0,1,10.08-2.72q7.68,0,11.68,4.52t4,13.4a3.06,3.06,0,0,1-.76,2.28,2.63,2.63,0,0,1-2,.76Zm4.76-13.48q-3.56,3.48-4.44,9.88h24.88q.24-6.55-2.72-10a10.36,10.36,0,0,0-8.24-3.4A13,13,0,0,0,102.18,34.94Z"/><path d="M140.26,65.46a15.38,15.38,0,0,1-6.08-6.56,21.74,21.74,0,0,1-2.12-9.84,26.3,26.3,0,0,1,2.32-11.36,17.52,17.52,0,0,1,6.68-7.56,19.16,19.16,0,0,1,10.2-2.68,22.78,22.78,0,0,1,7.48,1.2,15.51,15.51,0,0,1,5.48,3,2.74,2.74,0,0,1,1,2.08,2.54,2.54,0,0,1-.6,1.68,1.77,1.77,0,0,1-1.4.72,2.06,2.06,0,0,1-1.2-.48,17.1,17.1,0,0,0-10.8-4q-6.63,0-10.32,4.64t-3.68,12.88q0,6.64,3.32,10.44t9.4,3.8a14,14,0,0,0,5.4-1,19.57,19.57,0,0,0,4.84-2.92,2.4,2.4,0,0,1,1.28-.48,1.88,1.88,0,0,1,1.4.64,2.06,2.06,0,0,1,.6,1.44,2.21,2.21,0,0,1-.72,1.6,16.33,16.33,0,0,1-5.92,3.72,20.76,20.76,0,0,1-7.36,1.32A17.77,17.77,0,0,1,140.26,65.46Z"/><path d="M199.34,30.74q3.43,3.29,3.44,9.76c0,1,0,1.68-.08,2.16L201,65.14a2.42,2.42,0,0,1-.84,1.88,2.83,2.83,0,0,1-1.8.6,2.37,2.37,0,0,1-1.68-.6,2.25,2.25,0,0,1-.56-1.88L197.82,43a14.46,14.46,0,0,0,.08-1.84q0-9.36-9.28-9.36-5.93,0-9.4,3.44t-4,9.52l-1.6,20.4a2.79,2.79,0,0,1-.88,1.88,2.66,2.66,0,0,1-1.76.6,2.47,2.47,0,0,1-1.76-.6,2.06,2.06,0,0,1-.48-1.88l4.16-52.56a2.19,2.19,0,0,1,.84-1.64,2.83,2.83,0,0,1,1.8-.6,2.49,2.49,0,0,1,1.68.56,1.9,1.9,0,0,1,.56,1.68l-1.76,22a13.58,13.58,0,0,1,5.48-5.28,16.69,16.69,0,0,1,7.88-1.84Q195.9,27.46,199.34,30.74Z"/><path d="M247.82,10.94a1.93,1.93,0,0,1,.56,1.64L244.3,65.14a2.42,2.42,0,0,1-.84,1.88,2.83,2.83,0,0,1-1.8.6A2.37,2.37,0,0,1,240,67a2.25,2.25,0,0,1-.56-1.88l.4-4.48a13.86,13.86,0,0,1-5.52,5.24,15.82,15.82,0,0,1-7.6,1.88,16.1,16.1,0,0,1-8.64-2.32,15.49,15.49,0,0,1-5.84-6.56,22,22,0,0,1-2.08-9.84,26.67,26.67,0,0,1,2.28-11.32,17.66,17.66,0,0,1,6.4-7.6,17.07,17.07,0,0,1,9.48-2.68,16.14,16.14,0,0,1,8.24,2,12.38,12.38,0,0,1,5.2,5.8l1.76-22.72a2.16,2.16,0,0,1,.84-1.68,3,3,0,0,1,1.8-.56A2.37,2.37,0,0,1,247.82,10.94ZM237.38,58.78q3.56-4.68,3.56-12.76,0-7-3.24-10.64t-9.24-3.68a11.54,11.54,0,0,0-9.68,4.6q-3.53,4.61-3.52,12.68,0,7,3.24,10.72t9.16,3.76A11.55,11.55,0,0,0,237.38,58.78Z"/><path d="M277.82,28a1.91,1.91,0,0,1,.64,1.52,2.67,2.67,0,0,1-.6,1.52,2.1,2.1,0,0,1-1.56.72l-2.16.24q-6.08.57-9.28,3.68t-3.68,8.8l-1.6,20.64A2.79,2.79,0,0,1,258.7,67a2.66,2.66,0,0,1-1.76.6,2.47,2.47,0,0,1-1.76-.6,2.06,2.06,0,0,1-.48-1.88l2.8-35.28a2.16,2.16,0,0,1,.84-1.68,3,3,0,0,1,1.8-.56,2.33,2.33,0,0,1,1.64.56,2,2,0,0,1,.52,1.68l-.4,5a13.3,13.3,0,0,1,5.24-5.08,20.93,20.93,0,0,1,8-2.12l.88-.08A2.34,2.34,0,0,1,277.82,28Z"/><path d="M279.9,67a2.06,2.06,0,0,1-.48-1.88l2.8-35.28a2.16,2.16,0,0,1,.84-1.68,3,3,0,0,1,1.8-.56,2.49,2.49,0,0,1,1.68.56,1.93,1.93,0,0,1,.56,1.68l-2.8,35.28a2.79,2.79,0,0,1-.88,1.88,2.66,2.66,0,0,1-1.76.6A2.47,2.47,0,0,1,279.9,67Zm3.4-49.4a3.26,3.26,0,0,1-1-2.48,3.38,3.38,0,0,1,1-2.56,4,4,0,0,1,5.2,0,3.38,3.38,0,0,1,1,2.56,3.26,3.26,0,0,1-1,2.48,4,4,0,0,1-5.2,0Z"/><path d="M323.82,29.74a15.32,15.32,0,0,1,5.84,6.52,22.26,22.26,0,0,1,2.08,9.92,26.64,26.64,0,0,1-2.28,11.32,17.6,17.6,0,0,1-6.4,7.6,17,17,0,0,1-9.48,2.68,15.79,15.79,0,0,1-8.28-2.12,12.68,12.68,0,0,1-5.24-6l-1.6,20.08a2.19,2.19,0,0,1-.8,1.68,2.75,2.75,0,0,1-1.76.56,2.58,2.58,0,0,1-1.72-.56,1.87,1.87,0,0,1-.6-1.68l4-49.68a2.44,2.44,0,0,1,.84-1.88,2.83,2.83,0,0,1,1.8-.6,2.37,2.37,0,0,1,1.68.6,2.27,2.27,0,0,1,.56,1.88l-.4,4.4a13.59,13.59,0,0,1,5.48-5.16,16.15,16.15,0,0,1,7.64-1.88A16.35,16.35,0,0,1,323.82,29.74Zm-.72,29.12q3.52-4.59,3.52-12.68,0-6.87-3.24-10.68t-9.16-3.8a11.55,11.55,0,0,0-9.72,4.68q-3.56,4.68-3.56,12.84,0,7,3.24,10.6t9.24,3.64A11.51,11.51,0,0,0,323.1,58.86Z"/><path d="M367.26,29.74a15.39,15.39,0,0,1,5.84,6.52,22.26,22.26,0,0,1,2.08,9.92A26.64,26.64,0,0,1,372.9,57.5a17.6,17.6,0,0,1-6.4,7.6A17,17,0,0,1,357,67.78a15.79,15.79,0,0,1-8.28-2.12,12.68,12.68,0,0,1-5.24-6l-1.6,20.08a2.22,2.22,0,0,1-.8,1.68,2.75,2.75,0,0,1-1.76.56,2.56,2.56,0,0,1-1.72-.56,1.85,1.85,0,0,1-.6-1.68l4-49.68a2.44,2.44,0,0,1,.84-1.88,2.81,2.81,0,0,1,1.8-.6,2.37,2.37,0,0,1,1.68.6,2.3,2.3,0,0,1,.56,1.88l-.4,4.4A13.53,13.53,0,0,1,351,29.34a16.15,16.15,0,0,1,7.64-1.88A16.35,16.35,0,0,1,367.26,29.74Zm-.72,29.12q3.51-4.59,3.52-12.68,0-6.87-3.24-10.68t-9.16-3.8a11.55,11.55,0,0,0-9.72,4.68q-3.56,4.68-3.56,12.84,0,7,3.24,10.6t9.24,3.64A11.52,11.52,0,0,0,366.54,58.86Z"/><g id="rounded_logo"><polygon class="cls-1" points="15.87 67.59 8.8 57.73 41.19 57.73 45.41 67.59 15.87 67.59"/><polygon class="cls-1" points="58.44 44.36 46.7 44.36 35.3 67.59 46.38 67.59 58.44 44.36"/><polygon class="cls-2" points="34.97 0 58.44 44.36 46.7 44.36 23.23 0 34.97 0"/><polygon class="cls-2" points="0 44.36 11.73 44.36 23.14 67.59 12.06 67.59 0 44.36"/><polygon class="cls-1" points="23.47 0 0 44.36 11.73 44.36 35.2 0 23.47 0"/></g></g></g></svg>