<svg xmlns="http://www.w3.org/2000/svg" viewBox="0 0 385.18 81.43"><defs><style>.cls-1{fill:#14a3ff;}.cls-2{fill:#031927;}.cls-3{fill:none;}</style></defs><title>logo</title><g id="Layer_2" data-name="Layer 2"><g id="Text"><path d="M87.42,53a12.82,12.82,0,0,0-.08,1.6,9.25,9.25,0,0,0,1.92,6.28A6.73,6.73,0,0,0,94.62,63a15.78,15.78,0,0,0,2-.12A11.92,11.92,0,0,1,98,62.79a1.46,1.46,0,0,1,1.16.52,2.2,2.2,0,0,1,.44,1.48,1.81,1.81,0,0,1-1.24,1.8,12.79,12.79,0,0,1-4.44.52A11.13,11.13,0,0,1,85.54,64q-3.08-3.15-3.08-8.84a15.9,15.9,0,0,1,.08-1.76l1.68-21.6H78.3a2,2,0,0,1-1.44-.52,1.92,1.92,0,0,1-.56-1.48,1.84,1.84,0,0,1,.56-1.4,2.09,2.09,0,0,1,1.44-.52h6.16l.8-10a2.8,2.8,0,0,1,.84-1.6,2.46,2.46,0,0,1,1.72-.64,2.3,2.3,0,0,1,1.76.68A2.13,2.13,0,0,1,90.14,18l-.8,9.84H99.1a2.05,2.05,0,0,1,1.44.52,1.81,1.81,0,0,1,.56,1.4,1.89,1.89,0,0,1-.56,1.48,2.13,2.13,0,0,1-1.52.52H89.1Z"/><path d="M107.42,47.83v.8q0,6.72,3.36,10.48t9.68,3.76a20.34,20.34,0,0,0,6.36-1,17.64,17.64,0,0,0,5.4-2.76,2.72,2.72,0,0,1,1.52-.56,1.71,1.71,0,0,1,1.32.56,2,2,0,0,1,.52,1.44,2.64,2.64,0,0,1-1,2,16.52,16.52,0,0,1-6.2,3.32,26,26,0,0,1-8.12,1.32q-8.31,0-13.12-5.08t-4.8-13.64a26.13,26.13,0,0,1,2.32-11.28,17.84,17.84,0,0,1,6.64-7.6,18.55,18.55,0,0,1,10.08-2.72q7.68,0,11.68,4.52t4,13.4a3.06,3.06,0,0,1-.76,2.28,2.63,2.63,0,0,1-2,.76Zm4.76-13.48q-3.56,3.48-4.44,9.88h24.88q.24-6.55-2.72-10a10.36,10.36,0,0,0-8.24-3.4A13,13,0,0,0,112.18,34.35Z"/><path d="M150.26,64.87a15.38,15.38,0,0,1-6.08-6.56,21.74,21.74,0,0,1-2.12-9.84,26.3,26.3,0,0,1,2.32-11.36,17.52,17.52,0,0,1,6.68-7.56,19.16,19.16,0,0,1,10.2-2.68,22.78,22.78,0,0,1,7.48,1.2,15.51,15.51,0,0,1,5.48,3,2.74,2.74,0,0,1,1,2.08,2.54,2.54,0,0,1-.6,1.68,1.77,1.77,0,0,1-1.4.72,2.06,2.06,0,0,1-1.2-.48,17.1,17.1,0,0,0-10.8-4q-6.63,0-10.32,4.64t-3.68,12.88q0,6.65,3.32,10.44t9.4,3.8a14,14,0,0,0,5.4-1A19.57,19.57,0,0,0,170.14,59a2.4,2.4,0,0,1,1.28-.48,1.88,1.88,0,0,1,1.4.64,2.06,2.06,0,0,1,.6,1.44,2.21,2.21,0,0,1-.72,1.6,16.33,16.33,0,0,1-5.92,3.72,20.76,20.76,0,0,1-7.36,1.32A17.77,17.77,0,0,1,150.26,64.87Z"/><path d="M209.34,30.15q3.43,3.29,3.44,9.76c0,1,0,1.68-.08,2.16L211,64.55a2.42,2.42,0,0,1-.84,1.88,2.83,2.83,0,0,1-1.8.6,2.37,2.37,0,0,1-1.68-.6,2.25,2.25,0,0,1-.56-1.88l1.68-22.16a16.62,16.62,0,0,0,.08-1.84q0-9.36-9.28-9.36-5.93,0-9.4,3.44t-4,9.52l-1.6,20.4a2.79,2.79,0,0,1-.88,1.88A2.66,2.66,0,0,1,181,67a2.47,2.47,0,0,1-1.76-.6,2.06,2.06,0,0,1-.48-1.88L182.94,12a2.19,2.19,0,0,1,.84-1.64,2.83,2.83,0,0,1,1.8-.6,2.49,2.49,0,0,1,1.68.56,1.93,1.93,0,0,1,.56,1.68l-1.76,22a13.58,13.58,0,0,1,5.48-5.28,16.69,16.69,0,0,1,7.88-1.84Q205.9,26.87,209.34,30.15Z"/><path d="M257.82,10.35a1.93,1.93,0,0,1,.56,1.64L254.3,64.55a2.42,2.42,0,0,1-.84,1.88,2.83,2.83,0,0,1-1.8.6,2.37,2.37,0,0,1-1.68-.6,2.25,2.25,0,0,1-.56-1.88l.4-4.48a13.86,13.86,0,0,1-5.52,5.24,15.82,15.82,0,0,1-7.6,1.88,16.1,16.1,0,0,1-8.64-2.32,15.49,15.49,0,0,1-5.84-6.56,22,22,0,0,1-2.08-9.84,26.67,26.67,0,0,1,2.28-11.32,17.66,17.66,0,0,1,6.4-7.6,17.07,17.07,0,0,1,9.48-2.68,16.14,16.14,0,0,1,8.24,2,12.38,12.38,0,0,1,5.2,5.8L253.5,12a2.16,2.16,0,0,1,.84-1.68,3,3,0,0,1,1.8-.56A2.37,2.37,0,0,1,257.82,10.35ZM247.38,58.19q3.56-4.68,3.56-12.76,0-7-3.24-10.64t-9.24-3.68a11.54,11.54,0,0,0-9.68,4.6q-3.53,4.6-3.52,12.68,0,7,3.24,10.72t9.16,3.76A11.55,11.55,0,0,0,247.38,58.19Z"/><path d="M287.82,27.43a1.91,1.91,0,0,1,.64,1.52,2.67,2.67,0,0,1-.6,1.52,2.1,2.1,0,0,1-1.56.72l-2.16.24q-6.08.57-9.28,3.68t-3.68,8.8l-1.6,20.64a2.79,2.79,0,0,1-.88,1.88,2.66,2.66,0,0,1-1.76.6,2.47,2.47,0,0,1-1.76-.6,2.06,2.06,0,0,1-.48-1.88l2.8-35.28a2.16,2.16,0,0,1,.84-1.68,3,3,0,0,1,1.8-.56,2.33,2.33,0,0,1,1.64.56,2,2,0,0,1,.52,1.68l-.4,5a13.3,13.3,0,0,1,5.24-5.08,20.93,20.93,0,0,1,8-2.12l.88-.08A2.34,2.34,0,0,1,287.82,27.43Z"/><path d="M289.9,66.43a2.06,2.06,0,0,1-.48-1.88l2.8-35.28a2.16,2.16,0,0,1,.84-1.68,3,3,0,0,1,1.8-.56,2.49,2.49,0,0,1,1.68.56,1.93,1.93,0,0,1,.56,1.68l-2.8,35.28a2.79,2.79,0,0,1-.88,1.88,2.66,2.66,0,0,1-1.76.6A2.47,2.47,0,0,1,289.9,66.43ZM293.3,17a3.26,3.26,0,0,1-1-2.48,3.38,3.38,0,0,1,1-2.56,4,4,0,0,1,5.2,0,3.38,3.38,0,0,1,1,2.56,3.26,3.26,0,0,1-1,2.48,4,4,0,0,1-5.2,0Z"/><path d="M333.82,29.15a15.32,15.32,0,0,1,5.84,6.52,22.26,22.26,0,0,1,2.08,9.92,26.64,26.64,0,0,1-2.28,11.32,17.6,17.6,0,0,1-6.4,7.6,17,17,0,0,1-9.48,2.68,15.79,15.79,0,0,1-8.28-2.12,12.68,12.68,0,0,1-5.24-6l-1.6,20.08a2.19,2.19,0,0,1-.8,1.68,2.75,2.75,0,0,1-1.76.56,2.58,2.58,0,0,1-1.72-.56,1.87,1.87,0,0,1-.6-1.68l4-49.68a2.44,2.44,0,0,1,.84-1.88,2.83,2.83,0,0,1,1.8-.6,2.37,2.37,0,0,1,1.68.6,2.27,2.27,0,0,1,.56,1.88l-.4,4.4a13.59,13.59,0,0,1,5.48-5.16,16.15,16.15,0,0,1,7.64-1.88A16.35,16.35,0,0,1,333.82,29.15Zm-.72,29.12q3.52-4.59,3.52-12.68,0-6.87-3.24-10.68t-9.16-3.8a11.55,11.55,0,0,0-9.72,4.68q-3.56,4.68-3.56,12.84,0,7,3.24,10.6t9.24,3.64A11.51,11.51,0,0,0,333.1,58.27Z"/><path d="M377.26,29.15a15.39,15.39,0,0,1,5.84,6.52,22.26,22.26,0,0,1,2.08,9.92,26.64,26.64,0,0,1-2.28,11.32,17.6,17.6,0,0,1-6.4,7.6A17,17,0,0,1,367,67.19a15.79,15.79,0,0,1-8.28-2.12,12.68,12.68,0,0,1-5.24-6l-1.6,20.08a2.22,2.22,0,0,1-.8,1.68,2.75,2.75,0,0,1-1.76.56,2.56,2.56,0,0,1-1.72-.56,1.85,1.85,0,0,1-.6-1.68l4-49.68a2.44,2.44,0,0,1,.84-1.88,2.81,2.81,0,0,1,1.8-.6,2.37,2.37,0,0,1,1.68.6,2.3,2.3,0,0,1,.56,1.88l-.4,4.4A13.53,13.53,0,0,1,361,28.75a16.15,16.15,0,0,1,7.64-1.88A16.35,16.35,0,0,1,377.26,29.15Zm-.72,29.12q3.51-4.59,3.52-12.68,0-6.87-3.24-10.68t-9.16-3.8a11.55,11.55,0,0,0-9.72,4.68q-3.56,4.68-3.56,12.84,0,7,3.24,10.6t9.24,3.64A11.52,11.52,0,0,0,376.54,58.27Z"/></g><g id="Rounded_Shape" data-name="Rounded Shape"><path class="cls-1" d="M57.55,44.65l-7,13.53a1.84,1.84,0,0,1-1.63,1l-17.31,0c-.35,0-.17.21,0,.52L35,67H56.33A1.85,1.85,0,0,0,58,66L68.69,45.32a.46.46,0,0,0-.41-.67Z"/><path class="cls-2" d="M11.05,45.32,21.76,66a1.83,1.83,0,0,0,1.63,1H33.7L22.18,44.65H11.46A.46.46,0,0,0,11.05,45.32Z"/><path class="cls-1" d="M22.13,43.6l17-32.38L44.62.94A.64.64,0,0,0,44.05,0h-8.9A2.5,2.5,0,0,0,33,1.32L11.06,42.92a.46.46,0,0,0,.41.68Z"/><path class="cls-2" d="M46.65,1a1.67,1.67,0,0,0-.34-.45L40.63,11.22h0l17,32.38H68.32a.46.46,0,0,0,.41-.68Z"/><path class="cls-1" d="M68.32,44.65H57.6L51.32,56.83a1.82,1.82,0,0,1-1.63,1H31a.46.46,0,0,0-.41.67L34.91,67H56.39A1.82,1.82,0,0,0,58,66L68.73,45.32A.46.46,0,0,0,68.32,44.65Z"/><rect class="cls-3" y="28" width="152" height="56"/></g></g></svg>