<svg xmlns="http://www.w3.org/2000/svg" viewBox="0 0 308.87 71.68"><defs><style>.cls-1{fill:#fff;}</style></defs><title>techdripp_logo_text</title><g id="Layer_2" data-name="Layer 2"><g id="black_and_white" data-name="black and white"><g id="dark_logo" data-name="dark logo"><g id="white_text" data-name="white text"><path class="cls-1" d="M11.12,43.2A12.7,12.7,0,0,0,11,44.8,9.27,9.27,0,0,0,13,51.08a6.73,6.73,0,0,0,5.36,2.2,15.78,15.78,0,0,0,2-.12A11.53,11.53,0,0,1,21.68,53a1.43,1.43,0,0,1,1.16.52A2.25,2.25,0,0,1,23.28,55,1.83,1.83,0,0,1,22,56.84a12.87,12.87,0,0,1-4.44.52A11.12,11.12,0,0,1,9.24,54.2c-2-2.11-3.08-5.05-3.08-8.84a15.77,15.77,0,0,1,.08-1.76L7.92,22H2a2,2,0,0,1-1.44-.52A1.94,1.94,0,0,1,0,20a1.83,1.83,0,0,1,.56-1.4A2,2,0,0,1,2,18.08H8.16l.8-10a2.8,2.8,0,0,1,.84-1.6,2.4,2.4,0,0,1,1.72-.64,2.31,2.31,0,0,1,1.76.68,2.15,2.15,0,0,1,.56,1.72L13,18.08H22.8a2,2,0,0,1,1.44.52A1.83,1.83,0,0,1,24.8,20a1.94,1.94,0,0,1-.56,1.48,2.13,2.13,0,0,1-1.52.52H12.8Z"/><path class="cls-1" d="M31.12,38.08v.8q0,6.72,3.36,10.48t9.68,3.76a20.34,20.34,0,0,0,6.36-1,18.34,18.34,0,0,0,5.4-2.76,2.7,2.7,0,0,1,1.52-.56,1.74,1.74,0,0,1,1.32.56,2,2,0,0,1,.52,1.44,2.66,2.66,0,0,1-1,2,16.75,16.75,0,0,1-6.2,3.32A26,26,0,0,1,44,57.44q-8.32,0-13.12-5.08t-4.8-13.64A25.92,25.92,0,0,1,28.4,27.44,17.78,17.78,0,0,1,35,19.84a18.55,18.55,0,0,1,10.08-2.72q7.68,0,11.68,4.52t4,13.4A3.09,3.09,0,0,1,60,37.32a2.64,2.64,0,0,1-2,.76ZM35.88,24.6q-3.56,3.48-4.44,9.88H56.32q.24-6.55-2.72-10a10.33,10.33,0,0,0-8.24-3.4A13,13,0,0,0,35.88,24.6Z"/><path class="cls-1" d="M74,55.12a15.38,15.38,0,0,1-6.08-6.56,21.66,21.66,0,0,1-2.12-9.84,26.13,26.13,0,0,1,2.32-11.36,17.39,17.39,0,0,1,6.68-7.56A19,19,0,0,1,85,17.12a22.82,22.82,0,0,1,7.48,1.2,15.44,15.44,0,0,1,5.48,3,2.74,2.74,0,0,1,1,2.08,2.54,2.54,0,0,1-.6,1.68,1.79,1.79,0,0,1-1.4.72,2,2,0,0,1-1.2-.48,17,17,0,0,0-10.8-4q-6.64,0-10.32,4.64T70.88,38.88q0,6.65,3.32,10.44t9.4,3.8a14.07,14.07,0,0,0,5.4-1,20.06,20.06,0,0,0,4.84-2.92,2.38,2.38,0,0,1,1.28-.48,1.86,1.86,0,0,1,1.4.64,2.06,2.06,0,0,1,.6,1.44,2.21,2.21,0,0,1-.72,1.6,16.42,16.42,0,0,1-5.92,3.72,20.8,20.8,0,0,1-7.36,1.32A17.74,17.74,0,0,1,74,55.12Z"/><path class="cls-1" d="M133,20.4q3.44,3.29,3.44,9.76c0,1,0,1.68-.08,2.16L134.72,54.8a2.51,2.51,0,0,1-.84,1.88,2.83,2.83,0,0,1-1.8.6,2.33,2.33,0,0,1-1.68-.6,2.23,2.23,0,0,1-.56-1.88l1.68-22.16a16.75,16.75,0,0,0,.08-1.84q0-9.36-9.28-9.36-5.92,0-9.4,3.44t-4,9.52l-1.6,20.4a2.81,2.81,0,0,1-.88,1.88,2.66,2.66,0,0,1-1.76.6,2.45,2.45,0,0,1-1.76-.6,2.07,2.07,0,0,1-.48-1.88l4.16-52.56A2.19,2.19,0,0,1,107.48.6a2.79,2.79,0,0,1,1.8-.6A2.49,2.49,0,0,1,111,.56a1.94,1.94,0,0,1,.56,1.68l-1.76,22A13.58,13.58,0,0,1,115.24,19a16.54,16.54,0,0,1,7.88-1.84Q129.6,17.12,133,20.4Z"/><path class="cls-1" d="M181.52.6a2,2,0,0,1,.56,1.64L178,54.8a2.51,2.51,0,0,1-.84,1.88,2.83,2.83,0,0,1-1.8.6,2.33,2.33,0,0,1-1.68-.6,2.23,2.23,0,0,1-.56-1.88l.4-4.48A14,14,0,0,1,168,55.56a16.79,16.79,0,0,1-16.24-.44,15.48,15.48,0,0,1-5.84-6.56,22.06,22.06,0,0,1-2.08-9.84,26.64,26.64,0,0,1,2.28-11.32,17.66,17.66,0,0,1,6.4-7.6A16.94,16.94,0,0,1,162,17.12a16.17,16.17,0,0,1,8.24,2,12.38,12.38,0,0,1,5.2,5.8L177.2,2.24A2.13,2.13,0,0,1,178,.56a2.94,2.94,0,0,1,1.8-.56A2.37,2.37,0,0,1,181.52.6ZM171.08,48.44q3.55-4.68,3.56-12.76,0-7-3.24-10.64t-9.24-3.68a11.5,11.5,0,0,0-9.68,4.6Q149,30.57,149,38.64q0,7,3.24,10.72t9.16,3.76A11.57,11.57,0,0,0,171.08,48.44Z"/><path class="cls-1" d="M211.52,17.68a1.93,1.93,0,0,1,.64,1.52,2.85,2.85,0,0,1-.6,1.52,2.1,2.1,0,0,1-1.56.72l-2.16.24q-6.09.55-9.28,3.68t-3.68,8.8l-1.6,20.64a2.81,2.81,0,0,1-.88,1.88,2.66,2.66,0,0,1-1.76.6,2.45,2.45,0,0,1-1.76-.6,2.07,2.07,0,0,1-.48-1.88l2.8-35.28a2.13,2.13,0,0,1,.84-1.68,2.94,2.94,0,0,1,1.8-.56,2.33,2.33,0,0,1,1.64.56,2,2,0,0,1,.52,1.68l-.4,5a13.3,13.3,0,0,1,5.24-5.08,20.76,20.76,0,0,1,8-2.12l.88-.08A2.36,2.36,0,0,1,211.52,17.68Z"/><path class="cls-1" d="M213.6,56.68a2.07,2.07,0,0,1-.48-1.88l2.8-35.28a2.13,2.13,0,0,1,.84-1.68,2.94,2.94,0,0,1,1.8-.56,2.49,2.49,0,0,1,1.68.56,1.94,1.94,0,0,1,.56,1.68L218,54.8a2.81,2.81,0,0,1-.88,1.88,2.66,2.66,0,0,1-1.76.6A2.45,2.45,0,0,1,213.6,56.68ZM217,7.28a3.28,3.28,0,0,1-1-2.48,3.37,3.37,0,0,1,1-2.56,4,4,0,0,1,5.2,0,3.4,3.4,0,0,1,1,2.56,3.31,3.31,0,0,1-1,2.48,4,4,0,0,1-5.2,0Z"/><path class="cls-1" d="M257.51,19.4a15.2,15.2,0,0,1,5.84,6.52,22.23,22.23,0,0,1,2.08,9.92,26.64,26.64,0,0,1-2.28,11.32,17.66,17.66,0,0,1-6.4,7.6,16.94,16.94,0,0,1-9.48,2.68A15.94,15.94,0,0,1,239,55.32a12.73,12.73,0,0,1-5.24-6l-1.6,20.08a2.19,2.19,0,0,1-.8,1.68,2.77,2.77,0,0,1-1.76.56,2.61,2.61,0,0,1-1.71-.56,1.85,1.85,0,0,1-.61-1.68l4-49.68a2.51,2.51,0,0,1,.84-1.88,2.84,2.84,0,0,1,1.81-.6,2.33,2.33,0,0,1,1.67.6,2.23,2.23,0,0,1,.56,1.88l-.4,4.4A13.46,13.46,0,0,1,241.23,19a17,17,0,0,1,16.28.4Zm-.72,29.12q3.52-4.6,3.52-12.68,0-6.89-3.24-10.68c-2.15-2.53-5.21-3.8-9.15-3.8A11.58,11.58,0,0,0,238.19,26q-3.56,4.68-3.56,12.84,0,7,3.25,10.6t9.23,3.64A11.5,11.5,0,0,0,256.79,48.52Z"/><path class="cls-1" d="M301,19.4a15.2,15.2,0,0,1,5.84,6.52,22.23,22.23,0,0,1,2.08,9.92,26.64,26.64,0,0,1-2.28,11.32,17.66,17.66,0,0,1-6.4,7.6,16.94,16.94,0,0,1-9.48,2.68,15.94,15.94,0,0,1-8.28-2.12,12.68,12.68,0,0,1-5.24-6l-1.6,20.08a2.19,2.19,0,0,1-.8,1.68,2.79,2.79,0,0,1-1.76.56,2.65,2.65,0,0,1-1.72-.56,1.87,1.87,0,0,1-.6-1.68l4-49.68a2.51,2.51,0,0,1,.84-1.88,2.83,2.83,0,0,1,1.8-.6,2.33,2.33,0,0,1,1.68.6,2.23,2.23,0,0,1,.56,1.88l-.4,4.4A13.46,13.46,0,0,1,284.67,19a17,17,0,0,1,16.28.4Zm-.72,29.12q3.52-4.6,3.52-12.68,0-6.89-3.24-10.68t-9.16-3.8A11.57,11.57,0,0,0,281.63,26q-3.56,4.68-3.56,12.84,0,7,3.24,10.6t9.24,3.64A11.5,11.5,0,0,0,300.23,48.52Z"/></g></g></g></g></svg>